<svg xmlns="http://www.w3.org/2000/svg" xmlns:xlink="http://www.w3.org/1999/xlink" version="1.0" x="0" y="0" width="2400" height="719.3756330321148" viewBox="45.468203735351565 87.67286224365235 249.06359252929687 74.65428314208984" preserveAspectRatio="xMidYMid meet" color-interpolation-filters="sRGB"><g><defs><linearGradient id="92" x1="0%" y1="0%" x2="100%" y2="0%"><stop offset="0%" stop-color="#fa71cd"></stop> <stop offset="100%" stop-color="#9b59b6"></stop></linearGradient><linearGradient id="93" x1="0%" y1="0%" x2="100%" y2="0%"><stop offset="0%" stop-color="#f9d423"></stop> <stop offset="100%" stop-color="#f83600"></stop></linearGradient><linearGradient id="94" x1="0%" y1="0%" x2="100%" y2="0%"><stop offset="0%" stop-color="#0064d2"></stop> <stop offset="100%" stop-color="#1cb0f6"></stop></linearGradient><linearGradient id="95" x1="0%" y1="0%" x2="100%" y2="0%"><stop offset="0%" stop-color="#f00978"></stop> <stop offset="100%" stop-color="#3f51b1"></stop></linearGradient><linearGradient id="96" x1="0%" y1="0%" x2="100%" y2="0%"><stop offset="0%" stop-color="#7873f5"></stop> <stop offset="100%" stop-color="#ec77ab"></stop></linearGradient><linearGradient id="97" x1="0%" y1="0%" x2="100%" y2="0%"><stop offset="0%" stop-color="#f9d423"></stop> <stop offset="100%" stop-color="#e14fad"></stop></linearGradient><linearGradient id="98" x1="0%" y1="0%" x2="100%" y2="0%"><stop offset="0%" stop-color="#009efd"></stop> <stop offset="100%" stop-color="#2af598"></stop></linearGradient><linearGradient id="99" x1="0%" y1="0%" x2="100%" y2="0%"><stop offset="0%" stop-color="#ffcc00"></stop> <stop offset="100%" stop-color="#00b140"></stop></linearGradient><linearGradient id="100" x1="0%" y1="0%" x2="100%" y2="0%"><stop offset="0%" stop-color="#d51007"></stop> <stop offset="100%" stop-color="#ff8177"></stop></linearGradient><linearGradient id="102" x1="0%" y1="0%" x2="100%" y2="0%"><stop offset="0%" stop-color="#a2b6df"></stop> <stop offset="100%" stop-color="#0c3483"></stop></linearGradient><linearGradient id="103" x1="0%" y1="0%" x2="100%" y2="0%"><stop offset="0%" stop-color="#7ac5d8"></stop> <stop offset="100%" stop-color="#eea2a2"></stop></linearGradient><linearGradient id="104" x1="0%" y1="0%" x2="100%" y2="0%"><stop offset="0%" stop-color="#00ecbc"></stop> <stop offset="100%" stop-color="#007adf"></stop></linearGradient><linearGradient id="105" x1="0%" y1="0%" x2="100%" y2="0%"><stop offset="0%" stop-color="#b88746"></stop> <stop offset="100%" stop-color="#fdf5a6"></stop></linearGradient></defs><g fill="#333333" class="icon-text-wrapper icon-svg-group iconsvg" transform="translate(47.910003662109375,90.11465835571289)"><g class="iconsvg-imagesvg" transform="translate(0,0)"><g><rect fill="#333333" fill-opacity="0" stroke-width="2" x="0" y="0" width="60" height="69.77068700869809" class="image-rect"></rect> <svg filter="url(#colors2558464456)" x="0" y="0" width="60" height="69.77068700869809" filtersec="colorsf7499813584" class="image-svg-svg primary" style="overflow: visible;"><svg xmlns="http://www.w3.org/2000/svg" enable-background="new 0 0 512 512" viewBox="35.8513069152832 -0.0000057220458984375 440.2974548339844 512" x="0px" y="0px"><g><path d="m456.861 231.42-27.827-73.323c-2.041-5.379-2.551-11.209-1.474-16.861 0 0 5.8-30 6.859-35.033 3.558-16.912 8.431-40.074 8.43-51.532-.001-14.723-5.768-28.532-16.241-38.883-10.45-10.33-24.287-15.943-38.996-15.784-14.74-.153-28.545 5.456-38.995 15.784-10.473 10.351-16.24 24.16-16.241 38.883-.001 11.455 4.87 34.611 8.426 51.519 1.06 5.038 6.863 35.046 6.863 35.046 1.076 5.653.566 11.483-1.474 16.861l-24.359 64.185-24.359-64.185c-2.041-5.378-2.551-11.208-1.475-16.861l4.278-22.458c.609-3.199 1.525-7.55 2.585-12.589 3.556-16.907 8.427-40.063 8.426-51.518-.001-14.723-5.768-28.532-16.241-38.883-10.316-10.197-23.939-15.788-38.427-15.788-.189 0-.379.001-.569.003-14.743-.149-28.545 5.455-38.996 15.784-10.472 10.351-16.24 24.16-16.241 38.883 0 11.457 4.871 34.616 8.429 51.528 2.45 11.644 4.627 23.313 6.86 35.036 1.077 5.652.566 11.483-1.475 16.861l-24.358 64.183-24.358-64.183c-2.041-5.378-2.551-11.209-1.475-16.861 2.331-12.243 4.663-24.431 7.183-36.58.851-4.053-1.745-8.029-5.799-8.88-4.049-.853-8.029 1.745-8.88 5.801-2.585 12.276-7.692 39.573-7.828 40.94-.175 1.768-44.397-.247-49.124.095-2.713-13.034-4.873-26.395-7.631-39.505-3.228-15.347-8.107-38.54-8.107-48.436.001-21.957 17.857-40.041 40.151-39.67.059.001.116.001.175 0 21.896-.364 40.147 17.697 40.15 39.67 0 3.07-.489 7.778-1.454 13.994-.636 4.093 2.167 7.926 6.26 8.561 4.093.637 7.926-2.167 8.561-6.26 1.099-7.074 1.632-12.404 1.632-16.297 0-14.723-5.768-28.532-16.241-38.883-10.316-10.193-23.938-15.784-38.426-15.784-.189 0-.379.001-.569.003-30.178.31-55.236 23.983-55.237 54.668 0 11.457 4.871 34.615 8.429 51.526 2.45 11.645 4.632 23.34 6.86 35.039 1.077 5.651.566 11.482-1.475 16.861l-27.827 73.323c-25.725 67.783-25.853 142.492-.364 210.364l22.43 59.725c2.357 6.275 8.444 10.491 15.147 10.491h64.073c6.703 0 12.79-4.216 15.146-10.491l18.599-49.522 18.598 49.522c2.356 6.275 8.443 10.491 15.146 10.491h64.074c6.703 0 12.79-4.216 15.146-10.491l18.598-49.521 18.598 49.521c2.356 6.275 8.444 10.491 15.146 10.491h64.073c6.704 0 12.791-4.216 15.147-10.491l17.181-45.75c1.456-3.877-.507-8.201-4.384-9.657-3.875-1.456-8.202.507-9.657 4.384l-17.181 45.75c-.172.457-.616.765-1.105.765h-64.073c-.489 0-.933-.308-1.104-.765l-22.43-59.725c-.786-2.092-1.555-4.217-2.291-6.328 19.92-60.501 19.914-125.713 0-186.197.848-2.432 1.731-4.859 2.636-7.244l13.724-36.163h83.005l13.724 36.163c21.845 57.563 24.231 121.767 6.717 180.784-1.178 3.971 1.086 8.145 5.056 9.323 3.917 1.163 8.161-1.137 9.323-5.056 18.441-62.148 15.928-129.757-7.076-190.373zm-226.41-73.903h51.201c.465 1.998 10.209 28.062 10.209 28.062h-71.62s9.743-26.055 10.21-28.062zm-14.638-102.845c0-10.685 4.186-20.705 11.786-28.217 15.466-15.286 41.414-15.311 56.904 0 7.599 7.511 11.785 17.532 11.785 28.217.001 9.894-4.878 33.085-8.105 48.431-2.471 11.745-4.663 23.485-6.918 35.327-.258 1.357-.455 2.721-.59 4.088h-49.247c-.135-1.367-.332-2.731-.59-4.089-2.252-11.825-4.451-23.595-6.917-35.32-3.23-15.347-8.109-38.541-8.108-48.437zm-118.725 108.752c.733-1.928 1.334-3.901 1.801-5.907h51.201c.465 1.998 1.065 3.969 1.798 5.901l8.41 22.161h-71.619zm82.972 273.087-22.431 59.725c-.171.457-.616.765-1.104.765h-64.073c-.489 0-.934-.308-1.105-.765l-22.43-59.725c-24.206-64.454-24.083-135.4.346-199.769l13.724-36.163h83.004l13.724 36.163c.909 2.396 1.792 4.823 2.636 7.243-19.916 60.491-19.919 125.712.007 186.219-.055.132-.106.265-.154.402-.691 1.97-1.412 3.957-2.144 5.905zm109.132 59.725c-.172.457-.615.765-1.104.765h-64.074c-.489 0-.933-.308-1.105-.765l-22.43-59.725c-22.994-61.227-24.034-128.313-3.14-190.055.023-.066.046-.132.067-.198 1.081-3.187 17.143-45.68 17.143-45.68h83.004s16.05 42.459 17.126 45.629c.032.101.066.201.102.301 20.876 61.727 19.829 128.793-3.159 190.003zm58.183-441.564c0-10.685 4.186-20.705 11.785-28.217 3.867-3.822 8.503-6.849 13.576-8.81 14.614-5.65 32.229-2.16 43.329 8.811 7.599 7.511 11.785 17.532 11.785 28.217.001 9.897-4.88 33.094-8.109 48.444-1.074 5.108-6.914 35.314-6.914 35.314-.259 1.357-.455 2.722-.591 4.089h-49.248c-.135-1.367-.332-2.731-.59-4.089 0 0-5.842-30.213-6.918-35.327-3.228-15.347-8.106-38.538-8.105-48.432zm4.428 130.907s9.743-26.056 10.21-28.062h51.2c.466 1.997 10.209 28.062 10.209 28.062z"></path></g></svg></svg> <defs><filter id="colors2558464456"><feColorMatrix type="matrix" values="0 0 0 0 0.19921875  0 0 0 0 0.50390625  0 0 0 0 0.921875  0 0 0 1 0" class="icon-feColorMatrix "></feColorMatrix></filter> <filter id="colorsf7499813584"><feColorMatrix type="matrix" values="0 0 0 0 0.99609375  0 0 0 0 0.99609375  0 0 0 0 0.99609375  0 0 0 1 0" class="icon-fecolormatrix"></feColorMatrix></filter> <filter id="colorsb9180619816"><feColorMatrix type="matrix" values="0 0 0 0 0  0 0 0 0 0  0 0 0 0 0  0 0 0 1 0" class="icon-fecolormatrix"></feColorMatrix></filter></defs></g></g> <g transform="translate(67,18.132339477539062)"><g fill-rule="" class="tp-name iconsvg-namesvg" transform="translate(0,0)"><g transform="scale(1)"><g><path d="M1.83 0L9.57 0C15.35 0 16.96-2.26 16.96-5.24 16.96-7.98 14.41-9.51 11.34-9.65L11.34-9.78C13.68-10.05 15.29-11.48 15.29-14 15.29-16.64 14.08-18.81 8.84-18.81L1.83-18.81 1.83-15.78 8.44-15.78C10.83-15.78 11.85-15.24 11.85-13.6 11.85-11.66 10.35-11.26 8.31-11.26L1.83-11.26 1.83-7.98 8.65-7.98C11.32-7.98 13.12-7.31 13.12-5.43 13.12-3.55 11.75-3.06 8.71-3.06L1.83-3.06ZM28.09-19.08L28.09-15.64C31.64-15.64 34.32-13.6 34.32-9.41 34.32-5.21 31.64-3.14 28.09-3.14 24.65-3.14 21.99-5.21 21.99-9.41 21.99-9.41 18.33-9.41 18.33-9.41 18.33-3.2 22.66 0.27 28.09 0.27 33.65 0.27 37.95-2.93 37.95-9.41 37.95-15.59 33.65-19.08 28.09-19.08ZM57.17 0L60.96 0 67.84-18.81 63.73-18.81 59.4-4.89 59.21-4.89 54.83-18.81 51.18-18.81ZM45.13 0L48.94 0 52.01-9.41 50.34-14.27 47.41-4.89 47.22-4.89 42.55-18.81 38.44-18.81ZM73.46-5.62L73.46-18.81 69.8-18.81 69.8-5.62ZM69.8 0L83.48 0 83.48-3.55 69.8-3.55ZM102.89 0L106.52 0 106.52-6.64 110.74-6.64 114.26 0 118.34 0 113.96-7.26C116.25-8.39 117.27-10.86 117.27-12.87 117.27-16.66 114.9-18.81 110.66-18.81L85.52-18.81 85.52-15.54 110.25-15.54C112.67-15.54 113.85-14.65 113.85-12.79 113.85-10.8 112.46-9.65 110.28-9.65L102.89-9.65ZM99.45-7.74L99.45-11.07 85.52-11.07 85.52-7.74ZM85.52 0L99.45 0 99.45-3.55 85.52-3.55ZM123.45 0L123.45-3.12 119.55-3.12 119.55 0ZM133.77-6.37C138.61-6.37 140.6-9.33 140.6-12.77 140.6-16.15 138.88-18.81 133.77-18.81L126.35-18.81 126.35-15.64 133.15-15.64C135.73-15.64 136.78-14.62 136.78-12.66 136.78-10.7 135.52-9.54 133.18-9.54L126.35-9.54 126.35 0 129.98 0 129.98-6.37ZM142.83 0L146.46 0 146.46-6.64 150.68-6.64 154.2 0 158.28 0 153.9-7.26C156.19-8.39 157.21-10.86 157.21-12.87 157.21-16.66 154.84-18.81 150.6-18.81L142.83-18.81 142.83-15.64 150.19-15.64C152.61-15.64 153.79-14.65 153.79-12.79 153.79-10.8 152.4-9.65 150.22-9.65L142.83-9.65ZM169.14-19.08L169.14-15.64C172.69-15.64 175.38-13.6 175.38-9.41 175.38-5.21 172.69-3.14 169.14-3.14 165.7-3.14 163.04-5.21 163.04-9.41 163.04-9.41 159.38-9.41 159.38-9.41 159.38-3.2 163.71 0.27 169.14 0.27 174.71 0.27 179.01-2.93 179.01-9.41 179.01-15.59 174.71-19.08 169.14-19.08Z" transform="translate(-1.8300000429153442, 19.079999923706055)"></path></g> </g></g> <g fill-rule="" class="tp-slogan iconsvg-slogansvg" fill="#666666" transform="translate(35.54499816894531,25.35000228881836)"> <g transform="scale(1, 1)"><g transform="scale(1)"><path d="M1.08-7.87L1.08 0L3.10 0C3.69 0 4.21-0.09 4.67-0.27C5.12-0.45 5.51-0.71 5.82-1.05C6.13-1.39 6.37-1.81 6.53-2.30C6.69-2.79 6.77-3.35 6.77-3.97C6.77-5.23 6.45-6.19 5.82-6.86C5.19-7.54 4.26-7.87 3.05-7.87ZM2.98-0.82L2.08-0.82L2.08-7.06L2.98-7.06C3.90-7.06 4.59-6.79 5.05-6.26C5.51-5.74 5.74-4.97 5.74-3.97C5.74-2.97 5.51-2.20 5.05-1.64C4.59-1.09 3.90-0.82 2.98-0.82ZM8.46-7.87L8.46 0L13.12 0L13.12-0.85L9.46-0.85L9.46-3.71L12.44-3.71L12.44-4.56L9.46-4.56L9.46-7.03L13.00-7.03L13.00-7.87ZM14.78-7.87L14.78 0L15.78 0L15.78-7.87ZM17.94-7.87L17.94 0L18.89 0L18.89-4.12C18.89-4.53 18.87-4.95 18.85-5.36C18.82-5.77 18.79-6.18 18.76-6.58L18.80-6.58L19.66-4.96L22.51 0L23.54 0L23.54-7.87L22.60-7.87L22.60-3.80C22.60-3.39 22.61-2.97 22.64-2.54C22.67-2.11 22.69-1.70 22.72-1.30L22.67-1.30L21.82-2.93L18.97-7.87ZM25.70-7.87L25.70 0L30.36 0L30.36-0.85L26.70-0.85L26.70-3.71L29.69-3.71L29.69-4.56L26.70-4.56L26.70-7.03L30.24-7.03L30.24-7.87ZM34.45-7.87L34.45 0L36.96 0C37.40 0 37.80-0.05 38.17-0.14C38.54-0.24 38.86-0.38 39.12-0.58C39.38-0.77 39.59-1.01 39.73-1.30C39.88-1.58 39.95-1.92 39.95-2.30C39.95-2.85 39.79-3.28 39.47-3.59C39.15-3.90 38.70-4.10 38.12-4.19L38.12-4.24C38.59-4.36 38.93-4.57 39.16-4.89C39.38-5.21 39.49-5.56 39.49-5.95C39.49-6.30 39.43-6.59 39.29-6.83C39.16-7.08 38.98-7.28 38.74-7.43C38.51-7.58 38.22-7.69 37.89-7.76C37.56-7.84 37.19-7.87 36.79-7.87ZM36.61-4.51L35.45-4.51L35.45-7.08L36.66-7.08C37.28-7.08 37.74-6.99 38.05-6.80C38.35-6.61 38.51-6.30 38.51-5.87C38.51-5.43 38.36-5.09 38.07-4.86C37.78-4.63 37.29-4.51 36.61-4.51ZM36.82-0.79L35.45-0.79L35.45-3.77L36.82-3.77C37.51-3.77 38.04-3.65 38.41-3.43C38.78-3.20 38.96-2.84 38.96-2.35C38.96-1.82 38.78-1.42 38.40-1.17C38.02-0.92 37.50-0.79 36.82-0.79ZM44.41 0.14C44.91 0.14 45.36 0.05 45.77-0.14C46.19-0.34 46.54-0.61 46.84-0.97C47.14-1.32 47.37-1.75 47.54-2.26C47.70-2.77 47.78-3.34 47.78-3.97C47.78-4.60 47.70-5.16 47.54-5.66C47.37-6.16 47.14-6.58 46.84-6.93C46.54-7.28 46.19-7.55 45.77-7.73C45.36-7.92 44.91-8.02 44.41-8.02C43.92-8.02 43.46-7.92 43.05-7.74C42.64-7.56 42.28-7.29 41.99-6.94C41.69-6.59 41.46-6.17 41.30-5.67C41.13-5.17 41.05-4.60 41.05-3.97C41.05-3.34 41.13-2.77 41.30-2.26C41.46-1.75 41.69-1.32 41.99-0.97C42.28-0.61 42.64-0.34 43.05-0.14C43.46 0.05 43.92 0.14 44.41 0.14ZM44.41-0.73C44.06-0.73 43.74-0.81 43.46-0.96C43.17-1.11 42.93-1.33 42.73-1.61C42.52-1.90 42.36-2.24 42.25-2.63C42.14-3.03 42.08-3.48 42.08-3.97C42.08-4.46 42.14-4.90 42.25-5.29C42.36-5.68 42.52-6.02 42.73-6.29C42.93-6.56 43.17-6.77 43.46-6.92C43.74-7.07 44.06-7.14 44.41-7.14C44.76-7.14 45.08-7.07 45.37-6.92C45.65-6.77 45.89-6.56 46.10-6.29C46.30-6.02 46.46-5.68 46.57-5.29C46.68-4.90 46.74-4.46 46.74-3.97C46.74-3.48 46.68-3.03 46.57-2.63C46.46-2.24 46.30-1.90 46.10-1.61C45.89-1.33 45.65-1.11 45.37-0.96C45.08-0.81 44.76-0.73 44.41-0.73ZM48.60-7.87L50.27 0L51.46 0L52.62-4.74C52.68-5.04 52.75-5.34 52.82-5.63C52.89-5.93 52.95-6.22 53.02-6.53L53.06-6.53C53.13-6.22 53.19-5.93 53.25-5.63C53.31-5.34 53.38-5.04 53.45-4.74L54.64 0L55.84 0L57.47-7.87L56.51-7.87L55.68-3.59C55.60-3.16 55.52-2.74 55.45-2.32C55.38-1.90 55.31-1.48 55.24-1.04L55.19-1.04C55.09-1.48 55.00-1.90 54.90-2.33C54.80-2.75 54.71-3.17 54.61-3.59L53.52-7.87L52.61-7.87L51.52-3.59C51.43-3.16 51.34-2.74 51.24-2.32C51.14-1.90 51.05-1.48 50.96-1.04L50.92-1.04C50.84-1.48 50.77-1.90 50.69-2.32C50.61-2.73 50.53-3.16 50.46-3.59L49.63-7.87ZM58.84-7.87L58.84 0L63.28 0L63.28-0.85L59.83-0.85L59.83-7.87ZM64.67-7.87L64.67 0L65.66 0L65.66-7.87ZM67.82-7.87L67.82 0L68.77 0L68.77-4.12C68.77-4.53 68.76-4.95 68.73-5.36C68.70-5.77 68.67-6.18 68.64-6.58L68.69-6.58L69.54-4.96L72.40 0L73.43 0L73.43-7.87L72.48-7.87L72.48-3.80C72.48-3.39 72.49-2.97 72.52-2.54C72.55-2.11 72.58-1.70 72.60-1.30L72.55-1.30L71.70-2.93L68.86-7.87ZM75.13-3.94C75.13-3.30 75.22-2.72 75.40-2.21C75.57-1.71 75.82-1.28 76.13-0.93C76.44-0.58 76.81-0.32 77.24-0.13C77.68 0.05 78.15 0.14 78.67 0.14C79.20 0.14 79.67 0.06 80.09-0.11C80.51-0.29 80.85-0.50 81.11-0.77L81.11-4.08L78.53-4.08L78.53-3.25L80.20-3.25L80.20-1.20C80.04-1.06 79.83-0.94 79.58-0.86C79.33-0.77 79.06-0.73 78.78-0.73C78.36-0.73 77.98-0.81 77.66-0.96C77.33-1.11 77.06-1.33 76.84-1.61C76.62-1.89 76.45-2.23 76.34-2.62C76.22-3.02 76.16-3.46 76.16-3.96C76.16-4.45 76.23-4.89 76.35-5.28C76.47-5.67 76.65-6.01 76.87-6.28C77.10-6.56 77.37-6.77 77.69-6.92C78.01-7.07 78.37-7.14 78.77-7.14C79.17-7.14 79.50-7.07 79.76-6.93C80.02-6.79 80.25-6.62 80.45-6.41L81.01-7.04C80.78-7.28 80.48-7.51 80.12-7.71C79.75-7.91 79.30-8.02 78.76-8.02C78.23-8.02 77.74-7.92 77.30-7.73C76.86-7.55 76.48-7.28 76.16-6.92C75.83-6.57 75.58-6.14 75.40-5.64C75.22-5.14 75.13-4.57 75.13-3.94ZM85.42-7.87L85.42 0L89.86 0L89.86-0.85L86.41-0.85L86.41-7.87ZM91.25-7.87L91.25 0L92.24 0L92.24-7.87ZM93.95-3.94C93.95-3.30 94.04-2.72 94.21-2.21C94.39-1.71 94.63-1.28 94.94-0.93C95.26-0.58 95.63-0.32 96.06-0.13C96.49 0.05 96.97 0.14 97.49 0.14C98.02 0.14 98.49 0.06 98.91-0.11C99.33-0.29 99.67-0.50 99.92-0.77L99.92-4.08L97.34-4.08L97.34-3.25L99.01-3.25L99.01-1.20C98.85-1.06 98.65-0.94 98.39-0.86C98.14-0.77 97.88-0.73 97.60-0.73C97.17-0.73 96.80-0.81 96.47-0.96C96.15-1.11 95.88-1.33 95.66-1.61C95.44-1.89 95.27-2.23 95.15-2.62C95.04-3.02 94.98-3.46 94.98-3.96C94.98-4.45 95.04-4.89 95.17-5.28C95.29-5.67 95.46-6.01 95.69-6.28C95.91-6.56 96.18-6.77 96.50-6.92C96.82-7.07 97.18-7.14 97.58-7.14C97.98-7.14 98.31-7.07 98.57-6.93C98.83-6.79 99.06-6.62 99.26-6.41L99.83-7.04C99.60-7.28 99.30-7.51 98.93-7.71C98.57-7.91 98.12-8.02 97.57-8.02C97.04-8.02 96.56-7.92 96.12-7.73C95.68-7.55 95.30-7.28 94.97-6.92C94.65-6.57 94.40-6.14 94.22-5.64C94.04-5.14 93.95-4.57 93.95-3.94ZM105.11-3.20L102.74-3.20L103.12-4.40C103.26-4.84 103.40-5.28 103.52-5.72C103.65-6.15 103.78-6.60 103.90-7.06L103.94-7.06C104.07-6.60 104.20-6.15 104.33-5.72C104.46-5.28 104.59-4.84 104.74-4.40ZM105.36-2.40L106.10 0L107.17 0L104.51-7.87L103.38-7.87L100.72 0L101.74 0L102.49-2.40Z" transform="translate(-1.08, 8.016)"></path></g></g></g></g></g><defs v-gra="od"></defs></g></svg>