<svg xmlns="http://www.w3.org/2000/svg" xmlns:xlink="http://www.w3.org/1999/xlink" version="1.0" x="0" y="0" width="2400" height="2783.164050532322" viewBox="139.4 89.51466217041016 61.2 70.97068328857422" preserveAspectRatio="xMidYMid meet" color-interpolation-filters="sRGB"><g><defs><linearGradient id="92" x1="0%" y1="0%" x2="100%" y2="0%"><stop offset="0%" stop-color="#fa71cd"></stop> <stop offset="100%" stop-color="#9b59b6"></stop></linearGradient><linearGradient id="93" x1="0%" y1="0%" x2="100%" y2="0%"><stop offset="0%" stop-color="#f9d423"></stop> <stop offset="100%" stop-color="#f83600"></stop></linearGradient><linearGradient id="94" x1="0%" y1="0%" x2="100%" y2="0%"><stop offset="0%" stop-color="#0064d2"></stop> <stop offset="100%" stop-color="#1cb0f6"></stop></linearGradient><linearGradient id="95" x1="0%" y1="0%" x2="100%" y2="0%"><stop offset="0%" stop-color="#f00978"></stop> <stop offset="100%" stop-color="#3f51b1"></stop></linearGradient><linearGradient id="96" x1="0%" y1="0%" x2="100%" y2="0%"><stop offset="0%" stop-color="#7873f5"></stop> <stop offset="100%" stop-color="#ec77ab"></stop></linearGradient><linearGradient id="97" x1="0%" y1="0%" x2="100%" y2="0%"><stop offset="0%" stop-color="#f9d423"></stop> <stop offset="100%" stop-color="#e14fad"></stop></linearGradient><linearGradient id="98" x1="0%" y1="0%" x2="100%" y2="0%"><stop offset="0%" stop-color="#009efd"></stop> <stop offset="100%" stop-color="#2af598"></stop></linearGradient><linearGradient id="99" x1="0%" y1="0%" x2="100%" y2="0%"><stop offset="0%" stop-color="#ffcc00"></stop> <stop offset="100%" stop-color="#00b140"></stop></linearGradient><linearGradient id="100" x1="0%" y1="0%" x2="100%" y2="0%"><stop offset="0%" stop-color="#d51007"></stop> <stop offset="100%" stop-color="#ff8177"></stop></linearGradient><linearGradient id="102" x1="0%" y1="0%" x2="100%" y2="0%"><stop offset="0%" stop-color="#a2b6df"></stop> <stop offset="100%" stop-color="#0c3483"></stop></linearGradient><linearGradient id="103" x1="0%" y1="0%" x2="100%" y2="0%"><stop offset="0%" stop-color="#7ac5d8"></stop> <stop offset="100%" stop-color="#eea2a2"></stop></linearGradient><linearGradient id="104" x1="0%" y1="0%" x2="100%" y2="0%"><stop offset="0%" stop-color="#00ecbc"></stop> <stop offset="100%" stop-color="#007adf"></stop></linearGradient><linearGradient id="105" x1="0%" y1="0%" x2="100%" y2="0%"><stop offset="0%" stop-color="#b88746"></stop> <stop offset="100%" stop-color="#fdf5a6"></stop></linearGradient></defs><g class="imagesvg isNoFont" transform="translate(140,90.11465835571289)"><g><rect fill="#333333" fill-opacity="0" stroke-width="2" x="0" y="0" width="60" height="69.77068700869809" class="image-rect"></rect> <svg filter="url(#colors6272222936)" x="0" y="0" width="60" height="69.77068700869809" filtersec="colorsf599169600" class="image-svg-svg primary" style="overflow: visible;"><svg xmlns="http://www.w3.org/2000/svg" enable-background="new 0 0 512 512" viewBox="35.8513069152832 -0.0000057220458984375 440.2974548339844 512" x="0px" y="0px"><g><path d="m456.861 231.42-27.827-73.323c-2.041-5.379-2.551-11.209-1.474-16.861 0 0 5.8-30 6.859-35.033 3.558-16.912 8.431-40.074 8.43-51.532-.001-14.723-5.768-28.532-16.241-38.883-10.45-10.33-24.287-15.943-38.996-15.784-14.74-.153-28.545 5.456-38.995 15.784-10.473 10.351-16.24 24.16-16.241 38.883-.001 11.455 4.87 34.611 8.426 51.519 1.06 5.038 6.863 35.046 6.863 35.046 1.076 5.653.566 11.483-1.474 16.861l-24.359 64.185-24.359-64.185c-2.041-5.378-2.551-11.208-1.475-16.861l4.278-22.458c.609-3.199 1.525-7.55 2.585-12.589 3.556-16.907 8.427-40.063 8.426-51.518-.001-14.723-5.768-28.532-16.241-38.883-10.316-10.197-23.939-15.788-38.427-15.788-.189 0-.379.001-.569.003-14.743-.149-28.545 5.455-38.996 15.784-10.472 10.351-16.24 24.16-16.241 38.883 0 11.457 4.871 34.616 8.429 51.528 2.45 11.644 4.627 23.313 6.86 35.036 1.077 5.652.566 11.483-1.475 16.861l-24.358 64.183-24.358-64.183c-2.041-5.378-2.551-11.209-1.475-16.861 2.331-12.243 4.663-24.431 7.183-36.58.851-4.053-1.745-8.029-5.799-8.88-4.049-.853-8.029 1.745-8.88 5.801-2.585 12.276-7.692 39.573-7.828 40.94-.175 1.768-44.397-.247-49.124.095-2.713-13.034-4.873-26.395-7.631-39.505-3.228-15.347-8.107-38.54-8.107-48.436.001-21.957 17.857-40.041 40.151-39.67.059.001.116.001.175 0 21.896-.364 40.147 17.697 40.15 39.67 0 3.07-.489 7.778-1.454 13.994-.636 4.093 2.167 7.926 6.26 8.561 4.093.637 7.926-2.167 8.561-6.26 1.099-7.074 1.632-12.404 1.632-16.297 0-14.723-5.768-28.532-16.241-38.883-10.316-10.193-23.938-15.784-38.426-15.784-.189 0-.379.001-.569.003-30.178.31-55.236 23.983-55.237 54.668 0 11.457 4.871 34.615 8.429 51.526 2.45 11.645 4.632 23.34 6.86 35.039 1.077 5.651.566 11.482-1.475 16.861l-27.827 73.323c-25.725 67.783-25.853 142.492-.364 210.364l22.43 59.725c2.357 6.275 8.444 10.491 15.147 10.491h64.073c6.703 0 12.79-4.216 15.146-10.491l18.599-49.522 18.598 49.522c2.356 6.275 8.443 10.491 15.146 10.491h64.074c6.703 0 12.79-4.216 15.146-10.491l18.598-49.521 18.598 49.521c2.356 6.275 8.444 10.491 15.146 10.491h64.073c6.704 0 12.791-4.216 15.147-10.491l17.181-45.75c1.456-3.877-.507-8.201-4.384-9.657-3.875-1.456-8.202.507-9.657 4.384l-17.181 45.75c-.172.457-.616.765-1.105.765h-64.073c-.489 0-.933-.308-1.104-.765l-22.43-59.725c-.786-2.092-1.555-4.217-2.291-6.328 19.92-60.501 19.914-125.713 0-186.197.848-2.432 1.731-4.859 2.636-7.244l13.724-36.163h83.005l13.724 36.163c21.845 57.563 24.231 121.767 6.717 180.784-1.178 3.971 1.086 8.145 5.056 9.323 3.917 1.163 8.161-1.137 9.323-5.056 18.441-62.148 15.928-129.757-7.076-190.373zm-226.41-73.903h51.201c.465 1.998 10.209 28.062 10.209 28.062h-71.62s9.743-26.055 10.21-28.062zm-14.638-102.845c0-10.685 4.186-20.705 11.786-28.217 15.466-15.286 41.414-15.311 56.904 0 7.599 7.511 11.785 17.532 11.785 28.217.001 9.894-4.878 33.085-8.105 48.431-2.471 11.745-4.663 23.485-6.918 35.327-.258 1.357-.455 2.721-.59 4.088h-49.247c-.135-1.367-.332-2.731-.59-4.089-2.252-11.825-4.451-23.595-6.917-35.32-3.23-15.347-8.109-38.541-8.108-48.437zm-118.725 108.752c.733-1.928 1.334-3.901 1.801-5.907h51.201c.465 1.998 1.065 3.969 1.798 5.901l8.41 22.161h-71.619zm82.972 273.087-22.431 59.725c-.171.457-.616.765-1.104.765h-64.073c-.489 0-.934-.308-1.105-.765l-22.43-59.725c-24.206-64.454-24.083-135.4.346-199.769l13.724-36.163h83.004l13.724 36.163c.909 2.396 1.792 4.823 2.636 7.243-19.916 60.491-19.919 125.712.007 186.219-.055.132-.106.265-.154.402-.691 1.97-1.412 3.957-2.144 5.905zm109.132 59.725c-.172.457-.615.765-1.104.765h-64.074c-.489 0-.933-.308-1.105-.765l-22.43-59.725c-22.994-61.227-24.034-128.313-3.14-190.055.023-.066.046-.132.067-.198 1.081-3.187 17.143-45.68 17.143-45.68h83.004s16.05 42.459 17.126 45.629c.032.101.066.201.102.301 20.876 61.727 19.829 128.793-3.159 190.003zm58.183-441.564c0-10.685 4.186-20.705 11.785-28.217 3.867-3.822 8.503-6.849 13.576-8.81 14.614-5.65 32.229-2.16 43.329 8.811 7.599 7.511 11.785 17.532 11.785 28.217.001 9.897-4.88 33.094-8.109 48.444-1.074 5.108-6.914 35.314-6.914 35.314-.259 1.357-.455 2.722-.591 4.089h-49.248c-.135-1.367-.332-2.731-.59-4.089 0 0-5.842-30.213-6.918-35.327-3.228-15.347-8.106-38.538-8.105-48.432zm4.428 130.907s9.743-26.056 10.21-28.062h51.2c.466 1.997 10.209 28.062 10.209 28.062z"></path></g></svg></svg> <defs><filter id="colors6272222936"><feColorMatrix type="matrix" values="0 0 0 0 0.19921875  0 0 0 0 0.50390625  0 0 0 0 0.921875  0 0 0 1 0" class="icon-feColorMatrix "></feColorMatrix></filter> <filter id="colorsf599169600"><feColorMatrix type="matrix" values="0 0 0 0 0.99609375  0 0 0 0 0.99609375  0 0 0 0 0.99609375  0 0 0 1 0" class="icon-fecolormatrix"></feColorMatrix></filter> <filter id="colorsb3742325231"><feColorMatrix type="matrix" values="0 0 0 0 0  0 0 0 0 0  0 0 0 0 0  0 0 0 1 0" class="icon-fecolormatrix"></feColorMatrix></filter></defs></g></g><defs v-gra="od"></defs></g></svg>